<?xml version="1.0" encoding="UTF-8"?>
<svg version="1.1" xmlns="http://www.w3.org/2000/svg" width="507" height="507">
<path d="M0 0 C0.94731275 -0.00538554 1.89462549 -0.01077108 2.87064469 -0.01631981 C6.02328309 -0.03054915 9.17549863 -0.02350801 12.32815552 -0.01637268 C14.59732397 -0.02207888 16.86648956 -0.02904411 19.13565063 -0.03717041 C25.28446201 -0.05508968 31.43313057 -0.05393563 37.5819602 -0.04822803 C42.72104419 -0.04513425 47.86010082 -0.05123078 52.99918091 -0.05726677 C65.81890183 -0.07210857 78.6385227 -0.06850196 91.45823969 -0.05640347 C102.57272588 -0.04647416 113.68704552 -0.05940934 124.80150603 -0.08333766 C136.23420477 -0.10776425 147.66679668 -0.11692863 159.09952652 -0.11068493 C165.50997504 -0.10731823 171.92028598 -0.10971154 178.33071518 -0.12693596 C184.3603979 -0.14243068 190.38976329 -0.13842113 196.41943359 -0.11963081 C198.62724879 -0.11595191 200.83508764 -0.11903292 203.04288101 -0.1295166 C221.41726605 -0.21007878 234.32999573 2.59926453 248.18411255 15.38768005 C248.18411255 16.04768005 248.18411255 16.70768005 248.18411255 17.38768005 C248.78610474 17.6506488 249.38809692 17.91361755 250.0083313 18.18455505 C252.30309835 19.45347472 253.39549606 20.58898922 254.99661255 22.63768005 C257.59504831 25.80042257 260.38178912 28.37882674 263.5239563 30.98924255 C266.88830153 33.82320865 269.79656905 36.90834994 272.55911255 40.32518005 C274.40952905 42.5990461 276.36220544 44.45806561 278.62161255 46.32518005 C281.72189957 48.88745632 284.21507905 51.68042958 286.76223755 54.7822113 C288.6743391 56.94120509 290.93129504 58.59867791 293.18411255 60.38768005 C293.18411255 61.04768005 293.18411255 61.70768005 293.18411255 62.38768005 C294.01942505 62.72799255 294.01942505 62.72799255 294.87161255 63.07518005 C298.86850141 65.34368454 301.72377904 68.00667951 303.18411255 72.38768005 C303.76161255 72.67643005 304.33911255 72.96518005 304.93411255 73.26268005 C307.98385549 74.78755153 309.91191387 76.86983827 312.18411255 79.38768005 C312.51411255 80.37768005 312.84411255 81.36768005 313.18411255 82.38768005 C313.84411255 82.71768005 314.50411255 83.04768005 315.18411255 83.38768005 C315.84411255 83.71768005 316.50411255 84.04768005 317.18411255 84.38768005 C317.51411255 85.37768005 317.84411255 86.36768005 318.18411255 87.38768005 C318.84411255 87.71768005 319.50411255 88.04768005 320.18411255 88.38768005 C320.84411255 88.71768005 321.50411255 89.04768005 322.18411255 89.38768005 C322.51411255 90.37768005 322.84411255 91.36768005 323.18411255 92.38768005 C323.84411255 92.71768005 324.50411255 93.04768005 325.18411255 93.38768005 C325.84411255 93.71768005 326.50411255 94.04768005 327.18411255 94.38768005 C327.51411255 95.37768005 327.84411255 96.36768005 328.18411255 97.38768005 C328.84411255 97.71768005 329.50411255 98.04768005 330.18411255 98.38768005 C330.84411255 98.71768005 331.50411255 99.04768005 332.18411255 99.38768005 C332.51411255 100.37768005 332.84411255 101.36768005 333.18411255 102.38768005 C333.80157349 102.67385193 334.41903442 102.9600238 335.0552063 103.25486755 C341.14122194 106.49329789 344.17923288 117.05648109 346.18411255 123.38768005 C348.92784495 137.10634203 346.72772432 150.52360127 339.46243286 162.52000427 C335.60643904 168.15376148 330.64867016 172.94920581 325.82327271 177.74559021 C324.40754486 179.1638484 323.03197589 180.6219846 321.6645813 182.0868988 C312.60660542 191.69977771 301.13657594 199.16028029 287.6723938 199.59080505 C269.34458746 199.87184674 269.34458746 199.87184674 262.18411255 196.38768005 C260.99495239 195.83080505 260.99495239 195.83080505 259.7817688 195.26268005 C249.61820184 189.63833022 240.58180273 180.23973193 233.18411255 171.38768005 C233.18411255 170.72768005 233.18411255 170.06768005 233.18411255 169.38768005 C232.19411255 169.05768005 231.20411255 168.72768005 230.18411255 168.38768005 C229.85411255 167.72768005 229.52411255 167.06768005 229.18411255 166.38768005 C229.18053002 167.74769984 229.18053002 167.74769984 229.17687511 169.13519478 C229.11774666 191.19374268 229.04221034 213.25218112 228.94839764 235.31060982 C228.90342649 245.97789141 228.86401483 256.64513952 228.837677 267.31248474 C228.81470764 276.60982509 228.78132145 285.9070596 228.73541099 295.20431602 C228.7114645 300.1274338 228.69274505 305.05044666 228.68649864 309.97362137 C228.68045427 314.60786303 228.66047778 319.24183617 228.62983704 323.87597847 C228.62104644 325.57629978 228.61733635 327.27665617 228.61910439 328.97699928 C228.6207575 331.30049251 228.6040555 333.62316754 228.58283997 335.94654846 C228.578231 337.24627657 228.57362204 338.54600468 228.56887341 339.88511848 C227.88609321 346.10061473 224.67221221 351.10672346 220.18411255 355.38768005 C213.40967623 360.40778028 208.37479945 361.5374474 199.97433472 361.52812195 C198.72198261 361.53257863 198.72198261 361.53257863 197.44433045 361.53712535 C194.64241176 361.54580754 191.84053582 361.5473202 189.03860474 361.54881287 C187.03131519 361.55344138 185.02402653 361.55846609 183.01673889 361.56385803 C177.56000139 361.57698093 172.1032762 361.5834268 166.64652538 361.58786869 C163.23728202 361.59079964 159.82804202 361.5949045 156.41880035 361.59937286 C145.75182478 361.61304761 135.08485688 361.62271434 124.41787314 361.62657475 C112.10491449 361.63105534 99.79206685 361.64860343 87.47914195 361.67757535 C77.96139064 361.69919283 68.44367057 361.70927908 58.92589498 361.71061587 C53.24150529 361.71166387 47.55721997 361.71757054 41.87285614 361.73543549 C36.5245474 361.75191719 31.17642148 361.75407111 25.82809639 361.74529648 C23.86735354 361.74452616 21.90660087 361.74886816 19.9458828 361.75875473 C17.26431322 361.77148085 14.58339045 361.76559382 11.90182495 361.75517273 C10.74440517 361.76725734 10.74440517 361.76725734 9.56360316 361.77958608 C1.74774114 361.70879401 -4.48747065 359.31838451 -10.27682495 354.00486755 C-15.58950646 348.42250678 -16.94148934 343.85832733 -16.93614197 336.34527588 C-16.93699639 335.62400739 -16.93785082 334.9027389 -16.93873113 334.15961379 C-16.94038157 331.73666875 -16.93487169 329.31379257 -16.92941284 326.89085388 C-16.92913085 325.15644329 -16.92928894 323.42203259 -16.92985535 321.68762207 C-16.93014285 316.97306363 -16.92425364 312.25853052 -16.91728139 307.54397798 C-16.9110401 302.61921456 -16.91044344 297.6944506 -16.90925598 292.76968384 C-16.90614496 283.44121235 -16.89793464 274.11275254 -16.88790649 264.7842862 C-16.87673826 254.16531506 -16.87123311 243.54634336 -16.86621106 232.92736781 C-16.85575185 211.08079869 -16.83815683 189.23424011 -16.81588745 167.38768005 C-17.14588745 167.71768005 -17.47588745 168.04768005 -17.81588745 168.38768005 C-18.56096558 169.12115662 -19.3060437 169.85463318 -20.07369995 170.6103363 C-21.0300103 171.55636375 -21.98570105 172.50301779 -22.94088745 173.45018005 C-23.4422522 173.94679138 -23.94361694 174.44340271 -24.46017456 174.95506287 C-27.25218977 177.74482972 -29.87467397 180.58158854 -32.37838745 183.63768005 C-39.60960838 192.03967009 -50.79672299 198.66443105 -62.02316284 199.56468201 C-81.28377931 200.05844309 -93.05468761 196.84822477 -107.3588562 183.3134613 C-108.77204088 181.91989057 -110.18515597 180.52616667 -111.58517456 179.11936951 C-112.99841442 177.70515651 -114.43353776 176.3129245 -115.86862183 174.92088318 C-124.49965783 166.31390581 -130.82144231 157.55379543 -132.81588745 145.38768005 C-133.14588745 145.05768005 -133.47588745 144.72768005 -133.81588745 144.38768005 C-133.94383743 141.50136665 -134.00111433 138.64954562 -134.00338745 135.76268005 C-134.01563354 134.96732849 -134.02787964 134.17197693 -134.04049683 133.3525238 C-134.06009486 125.39572319 -131.65053324 118.73198961 -128.81588745 111.38768005 C-128.15588745 111.38768005 -127.49588745 111.38768005 -126.81588745 111.38768005 C-126.50651245 110.11924255 -126.50651245 110.11924255 -126.19088745 108.82518005 C-123.51240983 102.12898599 -118.28082753 97.7202474 -112.8432312 93.16111755 C-108.52879824 89.38702783 -104.60791144 85.16739591 -100.5854187 81.0868988 C-99.10742588 79.59419306 -97.62849381 78.10242503 -96.1491394 76.61106873 C-95.12816863 75.57993578 -94.10898449 74.54703099 -93.09152222 73.51243591 C-91.61496379 72.0117453 -90.13214886 70.5174972 -88.6479187 69.0243988 C-87.76853638 68.13454285 -86.88915405 67.24468689 -85.98312378 66.3278656 C-83.81588745 64.38768005 -83.81588745 64.38768005 -81.81588745 64.38768005 C-81.54776245 63.74830505 -81.27963745 63.10893005 -81.00338745 62.45018005 C-79.81588745 60.38768005 -79.81588745 60.38768005 -76.81588745 59.38768005 C-76.32088745 58.39768005 -76.32088745 58.39768005 -75.81588745 57.38768005 C-74.81588745 55.38768005 -74.81588745 55.38768005 -71.81588745 54.38768005 C-71.1336729 53.06223464 -70.4688244 51.72779034 -69.81588745 50.38768005 C-68.1166687 48.74705505 -68.1166687 48.74705505 -66.12838745 47.13768005 C-62.57129314 44.13477072 -59.53712672 40.94757416 -56.5541687 37.37986755 C-54.41788502 34.93154243 -52.11658517 32.6823156 -49.81588745 30.38768005 C-48.23704405 28.76594674 -46.66027198 27.14219467 -45.0854187 25.5165863 C-43.26669987 23.66083174 -41.44768046 21.80537172 -39.62838745 19.95018005 C-38.73313354 19.02141052 -37.83787964 18.09264099 -36.91549683 17.13572693 C-26.19223709 6.25761868 -15.46049776 -0.10692786 0 0 Z " fill="#FEFEFE" transform="translate(147.81588745117188,78.61231994628906)"/>
<path d="M0 0 C0.94731275 -0.00538554 1.89462549 -0.01077108 2.87064469 -0.01631981 C6.02328309 -0.03054915 9.17549863 -0.02350801 12.32815552 -0.01637268 C14.59732397 -0.02207888 16.86648956 -0.02904411 19.13565063 -0.03717041 C25.28446201 -0.05508968 31.43313057 -0.05393563 37.5819602 -0.04822803 C42.72104419 -0.04513425 47.86010082 -0.05123078 52.99918091 -0.05726677 C65.81890183 -0.07210857 78.6385227 -0.06850196 91.45823969 -0.05640347 C102.57272588 -0.04647416 113.68704552 -0.05940934 124.80150603 -0.08333766 C136.23420477 -0.10776425 147.66679668 -0.11692863 159.09952652 -0.11068493 C165.50997504 -0.10731823 171.92028598 -0.10971154 178.33071518 -0.12693596 C184.3603979 -0.14243068 190.38976329 -0.13842113 196.41943359 -0.11963081 C198.62724879 -0.11595191 200.83508764 -0.11903292 203.04288101 -0.1295166 C221.41726605 -0.21007878 234.32999573 2.59926453 248.18411255 15.38768005 C248.18411255 16.04768005 248.18411255 16.70768005 248.18411255 17.38768005 C248.78610474 17.6506488 249.38809692 17.91361755 250.0083313 18.18455505 C252.30309835 19.45347472 253.39549606 20.58898922 254.99661255 22.63768005 C257.59504831 25.80042257 260.38178912 28.37882674 263.5239563 30.98924255 C266.88830153 33.82320865 269.79656905 36.90834994 272.55911255 40.32518005 C274.40952905 42.5990461 276.36220544 44.45806561 278.62161255 46.32518005 C281.72189957 48.88745632 284.21507905 51.68042958 286.76223755 54.7822113 C288.6743391 56.94120509 290.93129504 58.59867791 293.18411255 60.38768005 C293.18411255 61.04768005 293.18411255 61.70768005 293.18411255 62.38768005 C294.01942505 62.72799255 294.01942505 62.72799255 294.87161255 63.07518005 C298.86850141 65.34368454 301.72377904 68.00667951 303.18411255 72.38768005 C303.76161255 72.67643005 304.33911255 72.96518005 304.93411255 73.26268005 C307.98385549 74.78755153 309.91191387 76.86983827 312.18411255 79.38768005 C312.51411255 80.37768005 312.84411255 81.36768005 313.18411255 82.38768005 C313.84411255 82.71768005 314.50411255 83.04768005 315.18411255 83.38768005 C315.84411255 83.71768005 316.50411255 84.04768005 317.18411255 84.38768005 C317.51411255 85.37768005 317.84411255 86.36768005 318.18411255 87.38768005 C318.84411255 87.71768005 319.50411255 88.04768005 320.18411255 88.38768005 C320.84411255 88.71768005 321.50411255 89.04768005 322.18411255 89.38768005 C322.51411255 90.37768005 322.84411255 91.36768005 323.18411255 92.38768005 C323.84411255 92.71768005 324.50411255 93.04768005 325.18411255 93.38768005 C325.84411255 93.71768005 326.50411255 94.04768005 327.18411255 94.38768005 C327.51411255 95.37768005 327.84411255 96.36768005 328.18411255 97.38768005 C328.84411255 97.71768005 329.50411255 98.04768005 330.18411255 98.38768005 C330.84411255 98.71768005 331.50411255 99.04768005 332.18411255 99.38768005 C332.51411255 100.37768005 332.84411255 101.36768005 333.18411255 102.38768005 C333.80157349 102.67385193 334.41903442 102.9600238 335.0552063 103.25486755 C341.14122194 106.49329789 344.17923288 117.05648109 346.18411255 123.38768005 C348.92784495 137.10634203 346.72772432 150.52360127 339.46243286 162.52000427 C335.60643904 168.15376148 330.64867016 172.94920581 325.82327271 177.74559021 C324.40754486 179.1638484 323.03197589 180.6219846 321.6645813 182.0868988 C312.60660542 191.69977771 301.13657594 199.16028029 287.6723938 199.59080505 C269.34458746 199.87184674 269.34458746 199.87184674 262.18411255 196.38768005 C260.99495239 195.83080505 260.99495239 195.83080505 259.7817688 195.26268005 C249.61820184 189.63833022 240.58180273 180.23973193 233.18411255 171.38768005 C233.18411255 170.72768005 233.18411255 170.06768005 233.18411255 169.38768005 C232.19411255 169.05768005 231.20411255 168.72768005 230.18411255 168.38768005 C229.85411255 167.72768005 229.52411255 167.06768005 229.18411255 166.38768005 C229.18053002 167.74769984 229.18053002 167.74769984 229.17687511 169.13519478 C229.11774666 191.19374268 229.04221034 213.25218112 228.94839764 235.31060982 C228.90342649 245.97789141 228.86401483 256.64513952 228.837677 267.31248474 C228.81470764 276.60982509 228.78132145 285.9070596 228.73541099 295.20431602 C228.7114645 300.1274338 228.69274505 305.05044666 228.68649864 309.97362137 C228.68045427 314.60786303 228.66047778 319.24183617 228.62983704 323.87597847 C228.62104644 325.57629978 228.61733635 327.27665617 228.61910439 328.97699928 C228.6207575 331.30049251 228.6040555 333.62316754 228.58283997 335.94654846 C228.578231 337.24627657 228.57362204 338.54600468 228.56887341 339.88511848 C227.88609321 346.10061473 224.67221221 351.10672346 220.18411255 355.38768005 C213.40967623 360.40778028 208.37479945 361.5374474 199.97433472 361.52812195 C198.72198261 361.53257863 198.72198261 361.53257863 197.44433045 361.53712535 C194.64241176 361.54580754 191.84053582 361.5473202 189.03860474 361.54881287 C187.03131519 361.55344138 185.02402653 361.55846609 183.01673889 361.56385803 C177.56000139 361.57698093 172.1032762 361.5834268 166.64652538 361.58786869 C163.23728202 361.59079964 159.82804202 361.5949045 156.41880035 361.59937286 C145.75182478 361.61304761 135.08485688 361.62271434 124.41787314 361.62657475 C112.10491449 361.63105534 99.79206685 361.64860343 87.47914195 361.67757535 C77.96139064 361.69919283 68.44367057 361.70927908 58.92589498 361.71061587 C53.24150529 361.71166387 47.55721997 361.71757054 41.87285614 361.73543549 C36.5245474 361.75191719 31.17642148 361.75407111 25.82809639 361.74529648 C23.86735354 361.74452616 21.90660087 361.74886816 19.9458828 361.75875473 C17.26431322 361.77148085 14.58339045 361.76559382 11.90182495 361.75517273 C10.74440517 361.76725734 10.74440517 361.76725734 9.56360316 361.77958608 C1.74774114 361.70879401 -4.48747065 359.31838451 -10.27682495 354.00486755 C-15.58950646 348.42250678 -16.94148934 343.85832733 -16.93614197 336.34527588 C-16.93699639 335.62400739 -16.93785082 334.9027389 -16.93873113 334.15961379 C-16.94038157 331.73666875 -16.93487169 329.31379257 -16.92941284 326.89085388 C-16.92913085 325.15644329 -16.92928894 323.42203259 -16.92985535 321.68762207 C-16.93014285 316.97306363 -16.92425364 312.25853052 -16.91728139 307.54397798 C-16.9110401 302.61921456 -16.91044344 297.6944506 -16.90925598 292.76968384 C-16.90614496 283.44121235 -16.89793464 274.11275254 -16.88790649 264.7842862 C-16.87673826 254.16531506 -16.87123311 243.54634336 -16.86621106 232.92736781 C-16.85575185 211.08079869 -16.83815683 189.23424011 -16.81588745 167.38768005 C-17.14588745 167.71768005 -17.47588745 168.04768005 -17.81588745 168.38768005 C-18.56096558 169.12115662 -19.3060437 169.85463318 -20.07369995 170.6103363 C-21.0300103 171.55636375 -21.98570105 172.50301779 -22.94088745 173.45018005 C-23.4422522 173.94679138 -23.94361694 174.44340271 -24.46017456 174.95506287 C-27.25218977 177.74482972 -29.87467397 180.58158854 -32.37838745 183.63768005 C-39.60960838 192.03967009 -50.79672299 198.66443105 -62.02316284 199.56468201 C-81.28377931 200.05844309 -93.05468761 196.84822477 -107.3588562 183.3134613 C-108.77204088 181.91989057 -110.18515597 180.52616667 -111.58517456 179.11936951 C-112.99841442 177.70515651 -114.43353776 176.3129245 -115.86862183 174.92088318 C-124.49965783 166.31390581 -130.82144231 157.55379543 -132.81588745 145.38768005 C-133.14588745 145.05768005 -133.47588745 144.72768005 -133.81588745 144.38768005 C-133.94383743 141.50136665 -134.00111433 138.64954562 -134.00338745 135.76268005 C-134.01563354 134.96732849 -134.02787964 134.17197693 -134.04049683 133.3525238 C-134.06009486 125.39572319 -131.65053324 118.73198961 -128.81588745 111.38768005 C-128.15588745 111.38768005 -127.49588745 111.38768005 -126.81588745 111.38768005 C-126.50651245 110.11924255 -126.50651245 110.11924255 -126.19088745 108.82518005 C-123.51240983 102.12898599 -118.28082753 97.7202474 -112.8432312 93.16111755 C-108.52879824 89.38702783 -104.60791144 85.16739591 -100.5854187 81.0868988 C-99.10742588 79.59419306 -97.62849381 78.10242503 -96.1491394 76.61106873 C-95.12816863 75.57993578 -94.10898449 74.54703099 -93.09152222 73.51243591 C-91.61496379 72.0117453 -90.13214886 70.5174972 -88.6479187 69.0243988 C-87.76853638 68.13454285 -86.88915405 67.24468689 -85.98312378 66.3278656 C-83.81588745 64.38768005 -83.81588745 64.38768005 -81.81588745 64.38768005 C-81.54776245 63.74830505 -81.27963745 63.10893005 -81.00338745 62.45018005 C-79.81588745 60.38768005 -79.81588745 60.38768005 -76.81588745 59.38768005 C-76.32088745 58.39768005 -76.32088745 58.39768005 -75.81588745 57.38768005 C-74.81588745 55.38768005 -74.81588745 55.38768005 -71.81588745 54.38768005 C-71.1336729 53.06223464 -70.4688244 51.72779034 -69.81588745 50.38768005 C-68.1166687 48.74705505 -68.1166687 48.74705505 -66.12838745 47.13768005 C-62.57129314 44.13477072 -59.53712672 40.94757416 -56.5541687 37.37986755 C-54.41788502 34.93154243 -52.11658517 32.6823156 -49.81588745 30.38768005 C-48.23704405 28.76594674 -46.66027198 27.14219467 -45.0854187 25.5165863 C-43.26669987 23.66083174 -41.44768046 21.80537172 -39.62838745 19.95018005 C-38.73313354 19.02141052 -37.83787964 18.09264099 -36.91549683 17.13572693 C-26.19223709 6.25761868 -15.46049776 -0.10692786 0 0 Z M-41.86227417 25.35472107 C-44.14750631 27.73276757 -46.47882926 30.06056773 -48.81588745 32.38768005 C-50.05725464 33.62904724 -50.05725464 33.62904724 -51.32369995 34.89549255 C-57.82109578 41.39288839 -64.31849162 47.89028422 -70.81588745 54.38768005 C-71.70098999 55.27801941 -72.58609253 56.16835876 -73.49801636 57.0856781 C-75.65700607 59.22988645 -77.88181186 61.22037698 -80.19088745 63.20018005 C-83.86447913 66.42904173 -87.04137619 69.84642771 -90.1947937 73.57518005 C-92.51516078 76.16951819 -95.10432584 78.20664137 -97.81588745 80.38768005 C-99.50300168 82.03364516 -101.17044965 83.70005154 -102.81588745 85.38768005 C-105.41319274 88.00274469 -108.02842804 90.59240239 -110.68307495 93.1493988 C-120.02585348 102.18638573 -127.04372496 110.69212243 -130.81588745 123.38768005 C-131.0066687 123.98967224 -131.19744995 124.59166443 -131.39401245 125.2118988 C-133.93708336 138.32755155 -131.32176577 150.30773998 -124.30807495 161.5634613 C-120.62352426 166.97298467 -116.15144692 171.53974696 -111.51315308 176.13645935 C-110.06952299 177.57156598 -108.64560087 179.02439733 -107.22213745 180.47947693 C-97.52306515 190.17185098 -87.08831269 197.59607381 -72.97946167 197.90696716 C-72.20360718 197.90060242 -71.42775269 197.89423767 -70.62838745 197.88768005 C-69.80612671 197.88195984 -68.98386597 197.87623962 -68.13668823 197.87034607 C-49.8884019 197.34364626 -38.99999172 186.91545596 -26.81588745 174.45018005 C-24.94407364 172.54204181 -23.06819651 170.63808679 -21.19088745 168.7353363 C-20.37362183 167.90010437 -19.5563562 167.06487244 -18.71432495 166.20433044 C-16.81588745 164.38768005 -16.81588745 164.38768005 -15.81588745 164.38768005 C-15.82141821 165.73720387 -15.82141821 165.73720387 -15.8270607 167.11399078 C-15.91543355 189.01456852 -15.98160773 210.91511548 -16.02313614 232.81583405 C-16.04375324 243.40690518 -16.07185765 253.99785723 -16.11764526 264.58885193 C-16.157539 273.82095943 -16.18332646 283.05298068 -16.19224143 292.28517199 C-16.19745186 297.17267568 -16.20968065 302.05993263 -16.23880768 306.94735718 C-16.2660168 311.55038461 -16.27432133 316.15306433 -16.26831818 320.75616455 C-16.26941595 322.44278352 -16.2773371 324.12941447 -16.29270935 325.81596375 C-16.38819781 336.83562539 -15.8046327 344.92900861 -7.81588745 353.38768005 C-1.60546496 358.04549692 2.84527352 358.53650227 10.43858337 358.52812195 C11.2782739 358.53109307 12.11796442 358.53406419 12.98310012 358.53712535 C15.80117226 358.54580779 18.61920191 358.54732021 21.43728638 358.54881287 C23.45605052 358.55344133 25.4748138 358.55846603 27.49357605 358.56385803 C32.98123716 358.57698061 38.46888603 358.58342663 43.95656037 358.58786869 C47.38455702 358.59079942 50.81255031 358.59490422 54.24054527 358.59937286 C64.96464994 358.61304693 75.68874696 358.62271424 86.41285974 358.62657475 C98.79487874 358.63105653 111.17678741 358.6486104 123.55877286 358.67757535 C133.12831277 358.69918473 142.69782161 358.70927863 152.26738566 358.71061587 C157.98360127 358.71166436 163.69971315 358.71758161 169.41590309 358.73543549 C174.79293559 358.75190341 180.16978623 358.75407783 185.54683495 358.74529648 C187.5192857 358.74452544 189.49174619 358.74887756 191.46417236 358.75875473 C194.15922852 358.77145811 196.85363901 358.76560618 199.5486908 358.75517273 C200.32710778 358.76322913 201.10552476 358.77128554 201.90753013 358.77958608 C208.85923432 358.71674999 214.52264672 356.73555688 219.77666187 351.9166708 C227.38213139 343.65443276 226.87037263 334.50386942 226.7517395 323.93431091 C226.7503275 322.16945944 226.75112398 320.40460503 226.75395203 318.63975525 C226.75538165 313.86951906 226.72606564 309.09991652 226.69108224 304.32982707 C226.65974282 299.33706455 226.65688203 294.34428614 226.6509552 289.35144043 C226.63543902 279.90616218 226.59444069 270.46117464 226.54420775 261.01602417 C226.48824497 250.25910842 226.46081035 239.50217849 226.43573058 228.74515331 C226.38352287 206.62583355 226.29562391 184.50677514 226.18411255 162.38768005 C227.46630699 163.50250487 228.74749562 164.61848657 230.02825928 165.73495483 C230.74182901 166.35629272 231.45539875 166.9776306 232.19059181 167.6177969 C234.48899585 169.65836087 236.64474698 171.79679777 238.77005005 174.0165863 C239.94954224 175.22798279 239.94954224 175.22798279 241.15286255 176.46385193 C242.75521335 178.11952772 244.35160199 179.7809948 245.94192505 181.44822693 C255.16279148 190.87249483 265.58570565 197.61299956 279.07131958 197.90672302 C279.85104126 197.90043884 280.63076294 197.89415466 281.43411255 197.88768005 C282.25895142 197.88268494 283.08379028 197.87768982 283.93362427 197.87254333 C300.8737418 197.39438156 312.54234337 187.55070589 323.93411255 176.01268005 C324.85321411 175.10518005 325.77231567 174.19768005 326.7192688 173.26268005 C337.59021776 162.3445345 344.35049633 150.27102878 344.68411255 134.57518005 C344.09469768 119.28225366 337.62196526 108.06079512 326.93435669 97.45921326 C326.01001831 96.5229007 325.08567993 95.58658813 324.1333313 94.62190247 C321.61763984 92.07511439 319.08647402 89.54427932 316.55106282 87.01713967 C314.42460849 84.89487381 312.30581583 82.76503746 310.18685812 80.6352908 C305.18033225 75.60369931 300.16089446 70.5852553 295.13308716 65.57493591 C289.9735665 60.43290933 284.83634244 55.2693619 279.70969492 50.09457713 C275.28394546 45.62884633 270.84452152 41.17703286 266.39419645 36.73579282 C263.74680192 34.09354248 261.10459233 31.44662687 258.47551155 28.78614235 C243.97302342 14.12665758 231.122254 1.27857713 209.28940547 1.11553115 C208.05013444 1.12120013 208.05013444 1.12120013 206.78582764 1.12698364 C205.88343397 1.1231581 204.98104029 1.11933255 204.05130136 1.11539108 C201.05075206 1.10513575 198.05039679 1.10903895 195.04983521 1.11302185 C192.88904138 1.10867125 190.72824911 1.10348694 188.56745911 1.09753418 C182.71411691 1.08417054 176.86083939 1.08356258 171.00748491 1.08609748 C166.11445358 1.08716897 161.22143524 1.08227927 156.32840669 1.07749206 C144.7816008 1.066406 133.23482744 1.06595442 121.6880188 1.07200623 C109.79046392 1.07804614 97.89302729 1.06573241 85.99549258 1.04443616 C75.76676609 1.0268027 65.53807719 1.02082155 55.30933607 1.0240739 C49.20630957 1.02588409 43.10336745 1.02327683 37.00035477 1.00935936 C31.25963282 0.9967573 25.51909484 0.99874774 19.77837563 1.01177025 C17.67698796 1.01413037 15.57558725 1.01142165 13.47421455 1.00314713 C-11.46678319 0.91205327 -24.63885288 7.24152063 -41.86227417 25.35472107 Z " fill="#080E0B" transform="translate(147.81588745117188,78.61231994628906)"/>
<path d="M0 0 C11.74665645 -0.1894622 22.24824161 5.75414557 30.7421875 13.51953125 C32 15 32 15 32 17 C32.60199219 17.26296875 33.20398438 17.5259375 33.82421875 17.796875 C36.1189858 19.06579466 37.21138351 20.20130916 38.8125 22.25 C41.41093576 25.41274252 44.19767657 27.99114669 47.33984375 30.6015625 C50.70418898 33.4355286 53.61245651 36.52066989 56.375 39.9375 C58.22541651 42.21136605 60.17809289 44.07038555 62.4375 45.9375 C65.53778703 48.49977626 68.0309665 51.29274953 70.578125 54.39453125 C72.49022655 56.55352503 74.74718249 58.21099786 77 60 C77 60.66 77 61.32 77 62 C77.8353125 62.3403125 77.8353125 62.3403125 78.6875 62.6875 C82.68438886 64.95600449 85.53966649 67.61899946 87 72 C87.5775 72.28875 88.155 72.5775 88.75 72.875 C91.79974294 74.39987147 93.72780132 76.48215822 96 79 C96.33 79.99 96.66 80.98 97 82 C97.66 82.33 98.32 82.66 99 83 C99.66 83.33 100.32 83.66 101 84 C101.33 84.99 101.66 85.98 102 87 C102.66 87.33 103.32 87.66 104 88 C104.66 88.33 105.32 88.66 106 89 C106.33 89.99 106.66 90.98 107 92 C107.66 92.33 108.32 92.66 109 93 C109.66 93.33 110.32 93.66 111 94 C111.33 94.99 111.66 95.98 112 97 C112.66 97.33 113.32 97.66 114 98 C114.66 98.33 115.32 98.66 116 99 C116.33 99.99 116.66 100.98 117 102 C117.61746094 102.28617187 118.23492187 102.57234375 118.87109375 102.8671875 C124.95710939 106.10561784 127.99512033 116.66880104 130 123 C132.7437324 136.71866198 130.54361177 150.13592122 123.27832031 162.13232422 C119.42232649 167.76608143 114.46455761 172.56152575 109.63916016 177.35791016 C108.22343231 178.77616834 106.84786334 180.23430454 105.48046875 181.69921875 C96.42249287 191.31209765 84.95246339 198.77260024 71.48828125 199.203125 C53.16047491 199.48416668 53.16047491 199.48416668 46 196 C44.81083984 195.443125 44.81083984 195.443125 43.59765625 194.875 C33.43408929 189.25065017 24.39769018 179.85205187 17 171 C17 170.34 17 169.68 17 169 C16.01 168.67 15.02 168.34 14 168 C13.67 167.34 13.34 166.68 13 166 C12.99641747 167.36001979 12.99641747 167.36001979 12.99276257 168.74751472 C12.93363411 190.80606262 12.85809779 212.86450106 12.76428509 234.92292976 C12.71931394 245.59021136 12.67990229 256.25745947 12.65356445 266.92480469 C12.63059509 276.22214504 12.5972089 285.51937954 12.55129844 294.81663597 C12.52735195 299.73975375 12.5086325 304.66276661 12.50238609 309.58594131 C12.49634172 314.22018298 12.47636523 318.85415612 12.44572449 323.48829842 C12.43693389 325.18861973 12.4332238 326.88897611 12.43499184 328.58931923 C12.43664495 330.91281246 12.41994295 333.23548749 12.39872742 335.55886841 C12.39411845 336.85859652 12.38950949 338.15832462 12.38476086 339.49743843 C11.56356877 346.97292816 7.07449467 352.47504897 1.38252068 357.14962387 C-2.9108867 359.498292 -6.00304838 359.55002167 -10.80783081 359.48101807 C-11.68275401 359.48443577 -12.55767721 359.48785347 -13.45911324 359.49137473 C-16.38437337 359.49795181 -19.30871144 359.47598034 -22.23388672 359.45410156 C-24.33326699 359.45297305 -26.43264884 359.45360702 -28.5320282 359.45587158 C-34.22791058 359.45701949 -39.9234562 359.43349734 -45.61926031 359.40557575 C-51.57298928 359.38057518 -57.52672591 359.37822115 -63.48049927 359.37347412 C-74.75327632 359.36104043 -86.02589825 359.32821335 -97.29860699 359.28807616 C-110.13282106 359.24337082 -122.96704253 359.2213745 -135.80131507 359.20129442 C-162.20096272 359.15948119 -188.60047267 359.08912134 -215 359 C-215.33 358.34 -215.66 357.68 -216 357 C-214.93447623 357.00276538 -213.86895247 357.00553076 -212.7711401 357.00837994 C-186.84850823 357.07496896 -160.92588745 357.12427272 -135.00318813 357.15543652 C-122.4671824 357.17090753 -109.93123315 357.19200162 -97.39526367 357.22631836 C-86.46933345 357.25621343 -75.54344413 357.2755733 -64.61747414 357.28226548 C-58.83188536 357.28617753 -53.04641363 357.29537646 -47.26086235 357.31719017 C-41.81494932 357.3375569 -36.36920151 357.34383336 -30.92325401 357.33932304 C-28.92500155 357.34014815 -26.92674354 357.34611262 -24.92852402 357.35761642 C-22.19823552 357.37256336 -19.46856918 357.36894551 -16.73826599 357.36076355 C-15.94933864 357.36950207 -15.16041128 357.3782406 -14.34757704 357.38724393 C-7.13609026 357.32891459 -1.20968052 355.20968052 4 350 C10.4351477 342.15881476 9.71231751 333.12087733 9.65942383 323.54663086 C9.66788559 321.78176749 9.67853361 320.01691345 9.69119263 318.2520752 C9.71925648 313.48196801 9.71688198 308.71231177 9.70889878 303.94214702 C9.70576698 298.94928449 9.73082781 293.95656388 9.75285339 288.96376038 C9.79025971 279.51859589 9.80243937 270.07357537 9.8054778 260.62834412 C9.81017232 249.87131802 9.84310832 239.1144358 9.87837565 228.35747325 C9.95026398 206.23833185 9.98681956 184.1192492 10 162 C13.80976534 163.77102197 16.14597496 165.97174075 19.0703125 169.015625 C20.05959951 170.03023693 21.04919311 171.04454999 22.0390625 172.05859375 C23.57650231 173.64526673 25.11055208 175.23491358 26.63867188 176.83056641 C36.84417008 187.45742296 47.51862846 196.18430759 62.88720703 196.51904297 C63.66692871 196.51275879 64.44665039 196.50647461 65.25 196.5 C66.07483887 196.49500488 66.89967773 196.49000977 67.74951172 196.48486328 C84.39186101 196.01510649 96.04064478 186.48628926 107.25 175.125 C108.55710937 173.83529297 108.55710937 173.83529297 109.890625 172.51953125 C120.605923 161.75523037 127.1717907 149.62896589 127.5 134.1875 C126.91304199 118.95831922 120.48989303 107.724541 109.84204102 97.16333008 C108.92745621 96.23677109 108.0128714 95.3102121 107.0705719 94.35557556 C104.58173633 91.83564742 102.07743335 89.33167051 99.56887937 86.83138871 C97.46479256 84.73149086 95.36836874 82.62402215 93.27177852 80.5166437 C88.31798931 75.53779018 83.35129124 70.57208358 78.3762207 65.61450195 C73.27123022 60.52700515 68.18853986 55.41799231 63.11642319 50.2977379 C58.73738384 45.87871391 54.34466769 41.47361216 49.94105095 37.07907981 C47.32160133 34.46477376 44.70733625 31.84580841 42.10620308 29.21326637 C23.96446283 10.65046908 23.96446283 10.65046908 0 2 C0 1.34 0 0.68 0 0 Z " fill="#3E4742" transform="translate(364,79)"/>
<path d="M0 0 C11.74665645 -0.1894622 22.24824161 5.75414557 30.7421875 13.51953125 C32 15 32 15 32 17 C32.60199219 17.26296875 33.20398438 17.5259375 33.82421875 17.796875 C36.1189858 19.06579466 37.21138351 20.20130916 38.8125 22.25 C41.41093576 25.41274252 44.19767657 27.99114669 47.33984375 30.6015625 C50.70418898 33.4355286 53.61245651 36.52066989 56.375 39.9375 C58.22541651 42.21136605 60.17809289 44.07038555 62.4375 45.9375 C65.53778703 48.49977626 68.0309665 51.29274953 70.578125 54.39453125 C72.49022655 56.55352503 74.74718249 58.21099786 77 60 C77 60.66 77 61.32 77 62 C77.556875 62.226875 78.11375 62.45375 78.6875 62.6875 C82.68438886 64.95600449 85.53966649 67.61899946 87 72 C87.5775 72.28875 88.155 72.5775 88.75 72.875 C91.79974294 74.39987147 93.72780132 76.48215822 96 79 C96.33 79.99 96.66 80.98 97 82 C97.66 82.33 98.32 82.66 99 83 C99.66 83.33 100.32 83.66 101 84 C101.33 84.99 101.66 85.98 102 87 C102.66 87.33 103.32 87.66 104 88 C104.66 88.33 105.32 88.66 106 89 C106.33 89.99 106.66 90.98 107 92 C107.66 92.33 108.32 92.66 109 93 C109.66 93.33 110.32 93.66 111 94 C111.33 94.99 111.66 95.98 112 97 C112.66 97.33 113.32 97.66 114 98 C114.66 98.33 115.32 98.66 116 99 C116.33 99.99 116.66 100.98 117 102 C117.61746094 102.28617187 118.23492187 102.57234375 118.87109375 102.8671875 C124.95710939 106.10561784 127.99512033 116.66880104 130 123 C132.7437324 136.71866198 130.54361177 150.13592122 123.27832031 162.13232422 C119.42456375 167.7628127 114.47005005 172.55910528 109.64794922 177.35351562 C108.21067062 178.78951664 106.80728249 180.25927942 105.41015625 181.734375 C98.08263409 189.40960032 91.88595504 194.65441413 81 195 C84 193 84 193 86.29931641 191.87451172 C93.68943558 188.23134336 99.26340257 183.45576251 104.95458984 177.58740234 C106.38047124 176.11936701 107.82683626 174.67413653 109.27734375 173.23046875 C120.21548345 162.14019915 127.16218381 150.08094759 127.5 134.1875 C126.91304199 118.95831922 120.48989303 107.724541 109.84204102 97.16333008 C108.92745621 96.23677109 108.0128714 95.3102121 107.0705719 94.35557556 C104.58173633 91.83564742 102.07743335 89.33167051 99.56887937 86.83138871 C97.46479256 84.73149086 95.36836874 82.62402215 93.27177852 80.5166437 C88.31798931 75.53779018 83.35129124 70.57208358 78.3762207 65.61450195 C73.27123022 60.52700515 68.18853986 55.41799231 63.11642319 50.2977379 C58.73738384 45.87871391 54.34466769 41.47361216 49.94105095 37.07907981 C47.32160133 34.46477376 44.70733625 31.84580841 42.10620308 29.21326637 C23.96446283 10.65046908 23.96446283 10.65046908 0 2 C0 1.34 0 0.68 0 0 Z " fill="#272D2A" transform="translate(364,79)"/>
<path d="M0 0 C0.33 0 0.66 0 1 0 C1.00146656 0.88422134 1.00293312 1.76844269 1.00444412 2.67945862 C1.04151219 24.20463402 1.100527 45.72965197 1.18390274 67.25469971 C1.22369481 77.66410579 1.25608648 88.07343625 1.27099609 98.48291016 C1.28401171 107.55689039 1.31097415 116.63070426 1.35461307 125.7045908 C1.37722983 130.50819791 1.39291055 135.31159981 1.39188385 140.11526489 C1.39113737 144.63959657 1.40908338 149.16347455 1.44116783 153.68768883 C1.44966416 155.34524147 1.45141856 157.00284502 1.44580269 158.66040993 C1.29755038 170.42387905 1.29755038 170.42387905 6 181 C6.53941349 181.51847504 7.07882698 182.03695007 7.63458633 182.57113647 C9 184 9 184 9 186 C9.556875 186.268125 10.11375 186.53625 10.6875 186.8125 C13 188 13 188 15.10630322 189.55167103 C18.94653928 191.47375395 22.41527717 191.40623592 26.61164856 191.36076355 C27.47755023 191.36332682 28.3434519 191.3658901 29.23559302 191.36853105 C32.13617415 191.37347125 35.03623442 191.35697204 37.93676758 191.34057617 C40.01629626 191.33972995 42.09582584 191.34020494 44.175354 191.34190369 C49.82165045 191.34276526 55.46775612 191.32511316 61.11400819 191.30418181 C67.0143654 191.28544207 72.91472687 191.2836667 78.81510925 191.28010559 C89.98872265 191.27077719 101.16224811 191.24615259 112.33582276 191.21605712 C125.05636147 191.1825379 137.77690435 191.16603333 150.49747622 191.15097082 C176.66503292 191.11960378 202.83251154 191.06682777 229 191 C229 191.66 229 192.32 229 193 C225.00423684 194.32007732 220.94703492 194.14505642 216.79022217 194.14044189 C215.95532076 194.14341302 215.12041935 194.14638414 214.26021791 194.1494453 C211.45829921 194.15812749 208.65642327 194.15964014 205.85449219 194.16113281 C203.84720264 194.16576133 201.83991398 194.17078604 199.83262634 194.17617798 C194.37588884 194.18930087 188.91916365 194.19574675 183.46241283 194.20018864 C180.05316947 194.20311959 176.64392947 194.20722445 173.23468781 194.21169281 C162.56771223 194.22536756 151.90074433 194.23503428 141.2337606 194.2388947 C128.92080194 194.24337529 116.6079543 194.26092338 104.2950294 194.2898953 C94.7772781 194.31151278 85.25955802 194.32159902 75.74178243 194.32293582 C70.05739274 194.32398381 64.37310743 194.32989049 58.68874359 194.34775543 C53.34043486 194.36423714 47.99230893 194.36639106 42.64398384 194.35761642 C40.683241 194.3568461 38.72248832 194.36118811 36.76177025 194.37107468 C34.08020067 194.3838008 31.3992779 194.37791377 28.7177124 194.36749268 C27.94609921 194.37554908 27.17448602 194.38360548 26.37949061 194.39190602 C18.56362859 194.32111395 12.3284168 191.93070446 6.5390625 186.6171875 C1.22638099 181.03482673 -0.12560188 176.47064727 -0.12025452 168.95759583 C-0.12110894 168.23632734 -0.12196337 167.51505885 -0.12284368 166.77193373 C-0.12449411 164.3489887 -0.11898423 161.92611251 -0.11352539 159.50317383 C-0.1132434 157.76876324 -0.11340149 156.03435253 -0.1139679 154.29994202 C-0.1142554 149.58538358 -0.10836619 144.87085046 -0.10139394 140.15629792 C-0.09515265 135.23153451 -0.09455598 130.30677054 -0.09336853 125.38200378 C-0.09025751 116.05353229 -0.08204719 106.72507249 -0.07201904 97.39660615 C-0.06085081 86.777635 -0.05534566 76.15866331 -0.05032361 65.53968775 C-0.0398644 43.69311864 -0.02226937 21.84656006 0 0 Z " fill="#050807" transform="translate(131,246)"/>
<path d="M0 0 C5.76368792 2.16605118 7.47325211 7.76196645 10 13 C15.4971287 25.22053997 15.36177482 38.79070807 10.80078125 51.28515625 C6.47872069 60.94174999 0.10007367 67.94418435 -7.35205078 75.35351562 C-8.78932938 76.78951664 -10.19271751 78.25927942 -11.58984375 79.734375 C-18.91736591 87.40960032 -25.11404496 92.65441413 -36 93 C-33 91 -33 91 -30.70068359 89.87451172 C-23.31056442 86.23134336 -17.73659743 81.45576251 -12.04541016 75.58740234 C-10.61952876 74.11936701 -9.17316374 72.67413653 -7.72265625 71.23046875 C3.21548345 60.14019915 10.16218381 48.08094759 10.5 32.1875 C10.11573933 22.21749355 7.30441779 10.30441779 0 3 C0 2.01 0 1.02 0 0 Z " fill="#181E1B" transform="translate(481,181)"/>
<path d="M0 0 C1.19281739 -0.00298657 1.19281739 -0.00298657 2.4097321 -0.00603348 C3.27743505 -0.00312064 4.145138 -0.0002078 5.03913498 0.00279331 C5.96543551 0.00193889 6.89173604 0.00108446 7.84610629 0.00020415 C10.95691648 -0.00144591 14.067673 0.004063 17.17847824 0.00952244 C19.40564091 0.00980444 21.63280367 0.00964633 23.85996628 0.00907993 C29.91326348 0.00879246 35.96654096 0.01468116 42.01983356 0.02165389 C48.34328296 0.0278957 54.66673278 0.02849189 60.99018478 0.0296793 C71.60601306 0.03243649 82.22183352 0.03868711 92.83765793 0.04760838 C103.77190235 0.05678768 114.70614481 0.06386598 125.6403923 0.06811619 C126.65140746 0.06851027 126.65140746 0.06851027 127.68284717 0.06891232 C131.06416473 0.07021736 134.44548229 0.07148107 137.82679987 0.07272422 C165.87729927 0.08309059 193.92779065 0.10077781 221.97828293 0.12304783 C221.97828293 0.45304783 221.97828293 0.78304783 221.97828293 1.12304783 C220.84944781 1.12543618 219.7206127 1.12782454 218.55757046 1.13028526 C191.0729028 1.1891161 163.58832254 1.26502119 136.10375118 1.35876274 C122.81233667 1.40370167 109.5209691 1.44312078 96.22950363 1.46948338 C84.64279836 1.49247878 73.05617765 1.52589423 61.46953946 1.57174939 C55.33621777 1.59566061 49.20297972 1.61440322 43.0696125 1.62066174 C37.29203939 1.62672198 31.51468025 1.64675621 25.73718643 1.67732334 C23.62130915 1.68608843 21.50540389 1.68982933 19.3895092 1.68805599 C0.99579594 1.62562251 0.99579594 1.62562251 -15.95921707 8.24804783 C-18.99054854 10.04273892 -21.54621502 11.46181542 -25.02171707 12.12304783 C-19.16941904 5.01668594 -9.27271617 -0.00514009 0 0 Z " fill="#000702" transform="translate(142.0217170715332,78.87695217132568)"/>
<path d="M0 0 C0.33 0 0.66 0 1 0 C1.00146656 0.88422134 1.00293312 1.76844269 1.00444412 2.67945862 C1.04151219 24.20463402 1.100527 45.72965197 1.18390274 67.25469971 C1.22369481 77.66410579 1.25608648 88.07343625 1.27099609 98.48291016 C1.28401171 107.55689039 1.31097415 116.63070426 1.35461307 125.7045908 C1.37722983 130.50819791 1.39291055 135.31159981 1.39188385 140.11526489 C1.39113737 144.63959657 1.40908338 149.16347455 1.44116783 153.68768883 C1.44966416 155.34524147 1.45141856 157.00284502 1.44580269 158.66040993 C1.29755038 170.42387905 1.29755038 170.42387905 6 181 C6.53941349 181.51847504 7.07882698 182.03695007 7.63458633 182.57113647 C9 184 9 184 9 186 C9.99 186.33 10.98 186.66 12 187 C10.68 187.33 9.36 187.66 8 188 C6.84906075 186.5665848 5.70441965 185.12811091 4.5625 183.6875 C3.92441406 182.88699219 3.28632813 182.08648437 2.62890625 181.26171875 C-0.28955597 177.20946546 -0.12371767 173.82332391 -0.12025452 168.95759583 C-0.12110894 168.23632734 -0.12196337 167.51505885 -0.12284368 166.77193373 C-0.12449411 164.3489887 -0.11898423 161.92611251 -0.11352539 159.50317383 C-0.1132434 157.76876324 -0.11340149 156.03435253 -0.1139679 154.29994202 C-0.1142554 149.58538358 -0.10836619 144.87085046 -0.10139394 140.15629792 C-0.09515265 135.23153451 -0.09455598 130.30677054 -0.09336853 125.38200378 C-0.09025751 116.05353229 -0.08204719 106.72507249 -0.07201904 97.39660615 C-0.06085081 86.777635 -0.05534566 76.15866331 -0.05032361 65.53968775 C-0.0398644 43.69311864 -0.02226937 21.84656006 0 0 Z " fill="#05100A" transform="translate(131,246)"/>
<path d="M0 0 C0.99 0.33 1.98 0.66 3 1 C0.54976242 3.50804718 -1.91147598 6.0050076 -4.375 8.5 C-5.42300781 9.57314453 -5.42300781 9.57314453 -6.4921875 10.66796875 C-7.49765625 11.68310547 -7.49765625 11.68310547 -8.5234375 12.71875 C-9.450354 13.66137695 -9.450354 13.66137695 -10.39599609 14.62304688 C-12 16 -12 16 -14 16 C-14.22582764 16.55179932 -14.45165527 17.10359863 -14.68432617 17.67211914 C-16.39771829 20.70370084 -18.57428175 22.79774859 -21.05078125 25.24609375 C-21.54660202 25.73908463 -22.04242279 26.2320755 -22.55326843 26.74000549 C-24.13502731 28.31061396 -25.72358685 29.87413286 -27.3125 31.4375 C-28.36960193 32.48456052 -29.42624736 33.53208213 -30.48242188 34.58007812 C-32.43640678 36.51778796 -34.39346913 38.45218063 -36.3527832 40.38452148 C-38.14789818 42.15811428 -39.9354434 43.93939538 -41.71606445 45.72753906 C-43.70198137 47.70347863 -45.72778501 49.51721444 -47.875 51.3125 C-51.38243315 54.34434899 -54.39517338 57.60843405 -57.3984375 61.1328125 C-59.49216906 63.5737971 -61.62573001 65.82923886 -64 68 C-64.66 68 -65.32 68 -66 68 C-66.66 69.32 -67.32 70.64 -68 72 C-68.99 72 -69.98 72 -71 72 C-67.0060348 67.09312847 -62.6959047 62.55729437 -58.25 58.0625 C-57.67096924 57.47057861 -57.09193848 56.87865723 -56.49536133 56.26879883 C-55.03589071 54.80590875 -53.52187506 53.39785485 -52 52 C-51.34 52 -50.68 52 -50 52 C-49.731875 51.360625 -49.46375 50.72125 -49.1875 50.0625 C-48 48 -48 48 -45 47 C-44.67 46.34 -44.34 45.68 -44 45 C-43 43 -43 43 -40 42 C-39.31778545 40.67455459 -38.65293694 39.34011028 -38 38 C-36.30078125 36.359375 -36.30078125 36.359375 -34.3125 34.75 C-30.75540569 31.74709067 -27.72123926 28.55989411 -24.73828125 24.9921875 C-22.60264933 22.54460934 -20.30962522 20.28074154 -18 18 C-16.52396284 16.52551674 -15.04878629 15.05017172 -13.57421875 13.57421875 C-9.04947917 9.04947917 -4.52473958 4.52473958 0 0 Z " fill="#1D2421" transform="translate(116,91)"/>
<path d="M0 0 C0 3 0 3 -1.37101746 4.73178101 C-2.01323746 5.36733917 -2.65545746 6.00289734 -3.31713867 6.65771484 C-4.04176804 7.38211761 -4.7663974 8.10652039 -5.51298523 8.85287476 C-6.30662979 9.63103546 -7.10027435 10.40919617 -7.91796875 11.2109375 C-8.72736404 12.01608795 -9.53675934 12.8212384 -10.37068176 13.65078735 C-12.96935214 16.232628 -15.57822145 18.80388494 -18.1875 21.375 C-19.92841838 23.10087281 -21.66866137 24.82742718 -23.40820312 26.5546875 C-26.61325432 29.73521451 -29.82213007 32.91176812 -33.03588867 36.08349609 C-37.58186552 40.57156788 -42.09490718 45.08990508 -46.57421875 49.64453125 C-48.27851876 51.36731322 -49.98294928 53.08996608 -51.6875 54.8125 C-52.55439453 55.69615234 -53.42128906 56.57980469 -54.31445312 57.49023438 C-55.14267578 58.32490234 -55.97089844 59.15957031 -56.82421875 60.01953125 C-57.57791748 60.78370361 -58.33161621 61.54787598 -59.1081543 62.33520508 C-61 64 -61 64 -63 64 C-63 64.66 -63 65.32 -63 66 C-63.66 65.67 -64.32 65.34 -65 65 C-60.92641234 60.09896484 -56.70435724 55.71663592 -51.84765625 51.58984375 C-49.43560514 49.51435791 -47.21909089 47.27906632 -45 45 C-44.236875 44.2575 -43.47375 43.515 -42.6875 42.75 C-40.42399754 40.43385795 -38.30845357 38.06906759 -36.1875 35.625 C-32.99352154 31.99275006 -29.62347953 28.86055875 -25.93359375 25.74609375 C-23.93978819 23.94562691 -22.23475816 22.04945352 -20.5 20 C-17.61898298 16.60405007 -14.52607809 13.74929556 -11.1328125 10.875 C-7.23283168 7.44644543 -3.63222898 3.70790042 0 0 Z " fill="#E8EAE9" transform="translate(92,118)"/>
<path d="M0 0 C11.74665645 -0.1894622 22.24824161 5.75414557 30.7421875 13.51953125 C32 15 32 15 32 17 C32.60199219 17.26296875 33.20398438 17.5259375 33.82421875 17.796875 C36.1189858 19.06579466 37.21138351 20.20130916 38.8125 22.25 C41.48030593 25.51823283 44.37462599 28.12713958 47.6796875 30.73828125 C48.11539063 31.15464844 48.55109375 31.57101563 49 32 C49 32.66 49 33.32 49 34 C44.84413515 33.49196842 43.07091616 31.32434531 40.2890625 28.3359375 C39.38051514 27.38106445 38.47196777 26.42619141 37.53588867 25.44238281 C37.06041595 24.93984985 36.58494324 24.43731689 36.09506226 23.91955566 C25.46792794 12.75390575 15.82637462 4.45581675 0 2 C0 1.34 0 0.68 0 0 Z " fill="#262D2A" transform="translate(364,79)"/>
<path d="M0 0 C0.66 0.33 1.32 0.66 2 1 C-0.28716746 4.14485525 -2.72917884 6.69566062 -5.6875 9.1875 C-16.2076459 18.27753296 -24.79085232 28.86797414 -27 43 C-27.22226828 47.00502931 -27.19023606 50.99049151 -27.125 55 C-27.11597656 56.06089844 -27.10695313 57.12179688 -27.09765625 58.21484375 C-27.07427524 60.81013638 -27.04150556 63.40494465 -27 66 C-27.33 66 -27.66 66 -28 66 C-30.06075906 60.88899042 -30.30393244 56.47821554 -30.25 51.0625 C-30.25773437 50.28970703 -30.26546875 49.51691406 -30.2734375 48.72070312 C-30.2469433 40.88504289 -27.791256 34.23189055 -25 27 C-24.34 27 -23.68 27 -23 27 C-22.79375 26.154375 -22.5875 25.30875 -22.375 24.4375 C-19.66758956 17.66897389 -14.35086787 13.27929962 -8.89453125 8.63671875 C-6.46398423 6.53692658 -4.23742212 4.30322866 -2 2 C-1.34 1.34 -0.68 0.68 0 0 Z " fill="#08110C" transform="translate(44,163)"/>
<path d="M0 0 C0.66 0.33 1.32 0.66 2 1 C2 2.65 2 4.3 2 6 C1.505 4.515 1.505 4.515 1 3 C0.34 3 -0.32 3 -1 3 C-1.24363281 3.57234375 -1.48726562 4.1446875 -1.73828125 4.734375 C-3.22517298 7.40433538 -4.98083908 9.13829007 -7.1875 11.25 C-10.12020533 14.0986469 -12.85149955 16.96022802 -15.4375 20.125 C-20.01804416 25.47610299 -27.81030771 32.52648793 -35.140625 33.1953125 C-36.18476562 33.16050781 -36.18476562 33.16050781 -37.25 33.125 C-38.4875 33.08375 -39.725 33.0425 -41 33 C-37.95459765 30.96973177 -35.0276999 29.73170086 -31.64453125 28.390625 C-23.13350034 23.91510505 -16.66993401 16.91612239 -10 10.125 C-9.02521262 9.14015657 -8.04995529 8.15577806 -7.07421875 7.171875 C-4.7115009 4.78576391 -2.35360893 2.39509065 0 0 Z " fill="#1D2420" transform="translate(131,242)"/>
<path d="M0 0 C5.76368792 2.16605118 7.47325211 7.76196645 10 13 C14.9674478 24.04301858 15.35845932 36.390511 12 48 C11.01 48.495 11.01 48.495 10 49 C10.01571045 48.32533691 10.0314209 47.65067383 10.04760742 46.95556641 C10.11066079 43.84546576 10.14921131 40.73550028 10.1875 37.625 C10.21263672 36.56410156 10.23777344 35.50320312 10.26367188 34.41015625 C10.34779665 25.26859753 8.65355023 17.64133837 4.4375 9.5 C4.02371094 8.6853125 3.60992187 7.870625 3.18359375 7.03125 C2.03972748 4.86975686 2.03972748 4.86975686 0 3 C0 2.01 0 1.02 0 0 Z " fill="#101512" transform="translate(481,181)"/>
<path d="M0 0 C0.99 0.33 1.98 0.66 3 1 C0.54976242 3.50804718 -1.91147598 6.0050076 -4.375 8.5 C-5.07367188 9.21542969 -5.77234375 9.93085937 -6.4921875 10.66796875 C-7.1625 11.34472656 -7.8328125 12.02148438 -8.5234375 12.71875 C-9.14138184 13.34716797 -9.75932617 13.97558594 -10.39599609 14.62304688 C-12 16 -12 16 -14 16 C-14.2582959 16.58426758 -14.5165918 17.16853516 -14.78271484 17.77050781 C-16.09673136 20.17716622 -17.52480015 21.75319337 -19.4765625 23.671875 C-20.146875 24.33574219 -20.8171875 24.99960938 -21.5078125 25.68359375 C-22.20648438 26.36550781 -22.90515625 27.04742187 -23.625 27.75 C-24.33140625 28.44738281 -25.0378125 29.14476563 -25.765625 29.86328125 C-27.50598703 31.58012488 -29.25084981 33.29211832 -31 35 C-31.495 33.515 -31.495 33.515 -32 32 C-30.4840625 30.7625 -30.4840625 30.7625 -28.9375 29.5 C-26.33572115 27.27360218 -24.04820025 24.99295582 -21.84375 22.375 C-17.64643002 17.51535782 -13.1248724 13.01457962 -8.5625 8.5 C-7.73556641 7.67757812 -6.90863281 6.85515625 -6.05664062 6.0078125 C-4.04005041 4.00287887 -2.02114764 2.00033747 0 0 Z " fill="#222A26" transform="translate(116,91)"/>
<path d="M0 0 C1.68609375 0.24363281 1.68609375 0.24363281 3.40625 0.4921875 C8.11521141 1.07873507 12.75980014 1.147826 17.5 1.125 C18.30308594 1.12886719 19.10617188 1.13273437 19.93359375 1.13671875 C25.04208356 1.12843919 29.9436817 0.7306148 35 0 C35 0.66 35 1.32 35 2 C29.09164269 4.03708473 23.72365212 4.33450726 17.5 4.3125 C16.58863281 4.32861328 15.67726563 4.34472656 14.73828125 4.36132812 C9.04217248 4.36543787 5.06310261 3.63587347 0 1 C0 0.67 0 0.34 0 0 Z " fill="#060C09" transform="translate(60,274)"/>
<path d="M0 0 C0.99 0.33 1.98 0.66 3 1 C-0.09015221 4.13949141 -3.18674696 7.27243757 -6.28955078 10.39941406 C-7.34474509 11.4646826 -8.39813964 12.53173697 -9.44970703 13.60058594 C-10.95919727 15.13426216 -12.47498699 16.66145568 -13.9921875 18.1875 C-15.35899658 19.57001953 -15.35899658 19.57001953 -16.75341797 20.98046875 C-19 23 -19 23 -21 23 C-21 23.66 -21 24.32 -21 25 C-21.66 24.67 -22.32 24.34 -23 24 C-18.92824642 19.10117148 -14.70653696 14.72231869 -9.85546875 10.59375 C-6.1262211 7.39052255 -2.82995831 4.0215197 0 0 Z " fill="#D1D5D3" transform="translate(50,159)"/>
<path d="M0 0 C0.66 0 1.32 0 2 0 C3.54618278 9.08382383 3.58515031 18.06367794 1 27 C0.34 27.33 -0.32 27.66 -1 28 C-0.67 18.76 -0.34 9.52 0 0 Z " fill="#0E1210" transform="translate(492,202)"/>
<path d="M0 0 C2 2 2 2 2 4.1875 C-0.24426591 10.49949787 -5.30352988 14.76336925 -11 18 C-11.66 18 -12.32 18 -13 18 C-13 17.01 -13 16.02 -13 15 C-11.42578125 13.7109375 -11.42578125 13.7109375 -9.3125 12.375 C-4.59912238 9.05972906 -2.38459302 5.15897528 0 0 Z " fill="#131815" transform="translate(373,420)"/>
<path d="M0 0 C-2.68709455 1.41902746 -5.27800249 2.44866012 -8.1875 3.3125 C-12.45379145 4.68531656 -16.12368147 6.60986318 -19.95703125 8.9140625 C-21.97639437 9.98745246 -23.76713959 10.54841025 -26 11 C-19.49496852 3.1010332 -10.12305511 -1.01230551 0 0 Z " fill="#121A16" transform="translate(143,80)"/>
<path d="M0 0 C1.13629361 2.26176538 2.25807308 4.52941849 3.3671875 6.8046875 C5.97032889 12.10538474 8.53924339 17.20818315 12 22 C11.01 22 10.02 22 9 22 C4.29628371 16.78315103 0.86239151 10.75116922 -1 4 C-0.5625 1.7734375 -0.5625 1.7734375 0 0 Z " fill="#111915" transform="translate(17,225)"/>
<path d="M0 0 C8.49484137 0.03758779 14.6704934 2.88187516 22 7 C19.61147358 7.84269359 18.38630633 8.13369301 15.95703125 7.29296875 C14.89548828 6.74576172 14.89548828 6.74576172 13.8125 6.1875 C9.30018737 4.02129011 4.91033673 2.88223544 0 2 C0 1.34 0 0.68 0 0 Z " fill="#141B18" transform="translate(364,79)"/>
<path d="M0 0 C0.66 0.33 1.32 0.66 2 1 C2 2.65 2 4.3 2 6 C1.67 5.01 1.34 4.02 1 3 C0.34 3 -0.32 3 -1 3 C-1.24492187 3.57234375 -1.48984375 4.1446875 -1.7421875 4.734375 C-3.21110099 7.38024402 -4.95348244 9.14853139 -7.125 11.25 C-7.84945312 11.95640625 -8.57390625 12.6628125 -9.3203125 13.390625 C-9.87460938 13.92171875 -10.42890625 14.4528125 -11 15 C-11.99 14.67 -12.98 14.34 -14 14 C-9.38 9.38 -4.76 4.76 0 0 Z " fill="#232725" transform="translate(131,242)"/>
<path d="M0 0 C5.66129431 4.69766975 10.85228904 9.74723372 16 15 C15.01 15.33 14.02 15.66 13 16 C10.82404478 13.90474642 8.65936733 11.79972937 6.5 9.6875 C5.87996094 9.09259766 5.25992187 8.49769531 4.62109375 7.88476562 C4.03457031 7.30791016 3.44804687 6.73105469 2.84375 6.13671875 C2.02680664 5.34334106 2.02680664 5.34334106 1.19335938 4.53393555 C0 3 0 3 0 0 Z " fill="#181D1A" transform="translate(382,248)"/>
<path d="M0 0 C-5.70437493 2.57256124 -10.52662361 4.13853791 -16.86328125 4.09765625 C-18.19262695 4.09282227 -18.19262695 4.09282227 -19.54882812 4.08789062 C-20.46083984 4.07951172 -21.37285156 4.07113281 -22.3125 4.0625 C-23.24384766 4.05798828 -24.17519531 4.05347656 -25.13476562 4.04882812 C-27.42324373 4.03709234 -29.71158808 4.02067363 -32 4 C-32 3.67 -32 3.34 -32 3 C-25.73 3 -19.46 3 -13 3 C-13 2.34 -13 1.68 -13 1 C-11.39796533 0.63631108 -9.79325797 0.28438048 -8.1875 -0.0625 C-7.29417969 -0.25972656 -6.40085937 -0.45695312 -5.48046875 -0.66015625 C-3 -1 -3 -1 0 0 Z " fill="#000000" transform="translate(452,274)"/>
<path d="M0 0 C0.66 0.33 1.32 0.66 2 1 C-0.92162789 5.01723835 -4.27677236 8.08139714 -8.02734375 11.28515625 C-10.47797923 13.41551066 -12.7403837 15.66977069 -15 18 C-15.66 17.67 -16.32 17.34 -17 17 C-13.60237744 12.84345831 -10.27280083 9.28676987 -6 6 C-4.3142876 4.35259924 -2.6436814 2.68933922 -1 1 C-0.67 0.67 -0.34 0.34 0 0 Z " fill="#09100D" transform="translate(44,163)"/>
<path d="M0 0 C4.77207556 0.70697416 7.71816822 3.58998504 10.875 7.0625 C11.431875 8.0215625 11.431875 8.0215625 12 9 C11.67 9.99 11.34 10.98 11 12 C9.16364422 10.19047409 7.33083792 8.37759362 5.5 6.5625 C4.97535156 6.04623047 4.45070313 5.52996094 3.91015625 4.99804688 C2.58775448 3.68423213 1.29164432 2.34406495 0 1 C0 0.67 0 0.34 0 0 Z " fill="#2E3532" transform="translate(411,113)"/>
<path d="M0 0 C0.33 0 0.66 0 1 0 C1.22531319 5.40751661 0.74724431 9.84562929 -1 15 C-3.078125 16.23046875 -3.078125 16.23046875 -5 17 C-4.80664062 16.35933594 -4.61328125 15.71867188 -4.4140625 15.05859375 C-2.9059252 10.04889015 -1.42282214 5.03460143 0 0 Z " fill="#3B4540" transform="translate(491,221)"/>
<path d="M0 0 C0.66 0.33 1.32 0.66 2 1 C-2.29 5.29 -6.58 9.58 -11 14 C-11.33 13.01 -11.66 12.02 -12 11 C-11.55269531 10.62488281 -11.10539062 10.24976562 -10.64453125 9.86328125 C-6.92631278 6.7158767 -3.392819 3.4956317 0 0 Z " fill="#2B3530" transform="translate(96,112)"/>
<path d="M0 0 C4.875 4.625 4.875 4.625 6 8 C6.99 8.33 7.98 8.66 9 9 C7.68 9.33 6.36 9.66 5 10 C3.02 7.36 1.04 4.72 -1 2 C-0.67 1.34 -0.34 0.68 0 0 Z " fill="#191F1C" transform="translate(134,424)"/>
<path d="M0 0 C3.49844386 0.63389235 5.84086876 2.05177694 8.75 4.0625 C9.94882812 4.88427734 9.94882812 4.88427734 11.171875 5.72265625 C12.07679688 6.35494141 12.07679688 6.35494141 13 7 C11.26171875 7.67578125 11.26171875 7.67578125 9 8 C6.89453125 6.85546875 6.89453125 6.85546875 4.8125 5.1875 C4.11769531 4.64480469 3.42289062 4.10210937 2.70703125 3.54296875 C1 2 1 2 0 0 Z " fill="#121614" transform="translate(396,264)"/>
<path d="M0 0 C2.29104056 0.91641622 3.75057101 1.69118315 5.3125 3.625 C6.36457706 7.25944801 5.61928668 10.28427995 5 14 C4.67 14 4.34 14 4 14 C3.5196682 12.41701974 3.04078388 10.83360022 2.5625 9.25 C2.29566406 8.36828125 2.02882813 7.4865625 1.75390625 6.578125 C1.11531506 4.39434165 0.53224167 2.21164502 0 0 Z " fill="#262E2A" transform="translate(487,192)"/>
<path d="M0 0 C0.33 0.66 0.66 1.32 1 2 C-0.98 4.64 -2.96 7.28 -5 10 C-5.99 9.67 -6.98 9.34 -8 9 C-7.23587913 7.87043002 -6.46340197 6.74651022 -5.6875 5.625 C-5.25824219 4.99851563 -4.82898438 4.37203125 -4.38671875 3.7265625 C-3 2 -3 2 0 0 Z " fill="#191F1C" transform="translate(488,236)"/>
<path d="M0 0 C0.66 0.66 1.32 1.32 2 2 C1.67028521 5.29714793 1.3773161 6.6226839 -1 9 C-1.99 9 -2.98 9 -4 9 C-2.80100302 5.9168649 -1.52299523 2.93720508 0 0 Z " fill="#242B27" transform="translate(373,420)"/>
<path d="M0 0 C4.455 1.98 4.455 1.98 9 4 C7.02 4.99 7.02 4.99 5 6 C2.25 4.8125 2.25 4.8125 0 3 C0 2.01 0 1.02 0 0 Z " fill="#131916" transform="translate(53,269)"/>
<path d="M0 0 C0.99 0.33 1.98 0.66 3 1 C0.69 3.64 -1.62 6.28 -4 9 C-4.66 8.67 -5.32 8.34 -6 8 C-5.38125 7.4225 -4.7625 6.845 -4.125 6.25 C-2.18652947 4.19750179 -1.09985751 2.56633418 0 0 Z " fill="#080A09" transform="translate(116,257)"/>
<path d="M0 0 C-1.40945366 0.56016748 -2.8280031 1.09748502 -4.25 1.625 C-5.43335938 2.07746094 -5.43335938 2.07746094 -6.640625 2.5390625 C-9.49917715 3.09752136 -10.58959839 2.53690745 -13 1 C-11.39796533 0.63631108 -9.79325797 0.28438048 -8.1875 -0.0625 C-7.29417969 -0.25972656 -6.40085937 -0.45695312 -5.48046875 -0.66015625 C-3 -1 -3 -1 0 0 Z " fill="#080D0B" transform="translate(452,274)"/>
<path d="M0 0 C0 3 0 3 -1.3125 4.60546875 C-1.869375 5.12753906 -2.42625 5.64960938 -3 6.1875 C-3.556875 6.71730469 -4.11375 7.24710938 -4.6875 7.79296875 C-5.120625 8.19128906 -5.55375 8.58960938 -6 9 C-6.66 8.67 -7.32 8.34 -8 8 C-7.04578192 6.85073734 -6.08647955 5.70569459 -5.125 4.5625 C-4.59132813 3.92441406 -4.05765625 3.28632813 -3.5078125 2.62890625 C-2 1 -2 1 0 0 Z " fill="#000402" transform="translate(35,172)"/>
<path d="M0 0 C2.97 0.33 5.94 0.66 9 1 C9 1.66 9 2.32 9 3 C6.03 2.67 3.06 2.34 0 2 C0 1.34 0 0.68 0 0 Z " fill="#1F2622" transform="translate(364,79)"/>
<path d="M0 0 C2.29633824 3.44450737 2.54016485 5.93812283 3 10 C2.34 9.67 1.68 9.34 1 9 C0.5859375 6.93359375 0.5859375 6.93359375 0.375 4.4375 C0.30023438 3.61121094 0.22546875 2.78492188 0.1484375 1.93359375 C0.09945312 1.29550781 0.05046875 0.65742188 0 0 Z " fill="#0B1510" transform="translate(131,416)"/>
<path d="M0 0 C2.88437779 1.29299694 4.87219421 2.65941363 7 5 C6.67 5.99 6.34 6.98 6 8 C6 7.34 6 6.68 6 6 C5.01 5.67 4.02 5.34 3 5 C1.3125 3.5625 1.3125 3.5625 0 2 C0 1.34 0 0.68 0 0 Z " fill="#0E110F" transform="translate(375,242)"/>
<path d="M0 0 C1.9375 0.6875 1.9375 0.6875 4 2 C4.75 4.625 4.75 4.625 5 7 C1.18461538 4.53846154 1.18461538 4.53846154 0.25 1.8125 C0.1675 1.214375 0.085 0.61625 0 0 Z " fill="#1F2422" transform="translate(476,176)"/>
<path d="M0 0 C1.9375 0.6875 1.9375 0.6875 4 2 C4.75 4.625 4.75 4.625 5 7 C1.18461538 4.53846154 1.18461538 4.53846154 0.25 1.8125 C0.1675 1.214375 0.085 0.61625 0 0 Z " fill="#222825" transform="translate(466,166)"/>
<path d="M0 0 C1.9375 0.6875 1.9375 0.6875 4 2 C4.75 4.625 4.75 4.625 5 7 C1.18461538 4.53846154 1.18461538 4.53846154 0.25 1.8125 C0.1675 1.214375 0.085 0.61625 0 0 Z " fill="#202522" transform="translate(396,96)"/>
</svg>
